<svg width="19" height="18" viewBox="0 0 19 18" fill="none" xmlns="http://www.w3.org/2000/svg">
<path fill-rule="evenodd" clip-rule="evenodd" d="M17.9743 1.29167C18.232 1.51712 18.2581 1.90876 18.0326 2.16642L15.6605 4.87745C15.1508 5.46 14.2728 5.538 13.6683 5.05444L12.2195 3.89539C11.9522 3.68152 11.9088 3.29141 12.1227 3.02406C12.3366 2.75671 12.7267 2.71337 12.994 2.92724L14.4428 4.08629C14.5292 4.15537 14.6546 4.14423 14.7274 4.06101L17.0996 1.34998C17.325 1.09232 17.7167 1.06621 17.9743 1.29167Z" fill="#233375"/>
<path opacity="0.4" d="M18.136 16V14.3541C18.136 13.5363 17.6381 12.8008 16.8788 12.4971L14.8446 11.6835C13.8788 11.2971 12.7782 11.7156 12.313 12.646L12.136 13C12.136 13 9.63599 12.5 7.63599 10.5C5.63599 8.5 5.13599 6 5.13599 6L5.49 5.82299C6.42037 5.35781 6.83884 4.25714 6.45253 3.29136L5.63887 1.25722C5.33515 0.497903 4.59973 0 3.78192 0H2.13599C1.03142 0 0.135986 0.89543 0.135986 2C0.135986 10.8366 7.29943 18 16.136 18C17.2406 18 18.136 17.1046 18.136 16Z" fill="#233375"/>
</svg>
