<svg width="19" height="19" viewBox="0 0 19 19" fill="none" xmlns="http://www.w3.org/2000/svg">
<path fill-rule="evenodd" clip-rule="evenodd" d="M13.0351 1.87079C13.328 1.5779 13.8029 1.5779 14.0958 1.87079L15.0654 2.84046L16.0351 1.8708C16.328 1.57791 16.8029 1.57791 17.0958 1.8708C17.3886 2.16369 17.3886 2.63857 17.0958 2.93146L16.1261 3.90112L17.0958 4.87079C17.3886 5.16368 17.3886 5.63856 17.0958 5.93145C16.8029 6.22434 16.328 6.22434 16.0351 5.93145L15.0654 4.96179L14.0958 5.93146C13.8029 6.22435 13.328 6.22435 13.0351 5.93146C12.7422 5.63856 12.7422 5.16369 13.0351 4.8708L14.0048 3.90112L13.0351 2.93145C12.7422 2.63856 12.7422 2.16369 13.0351 1.87079Z" fill="#FF5C5C"/>
<path opacity="0.4" d="M18.5654 16.4011V14.7552C18.5654 13.9374 18.0675 13.202 17.3082 12.8982L15.2741 12.0846C14.3083 11.6983 13.2076 12.1167 12.7424 13.0471L12.5654 13.4011C12.5654 13.4011 10.0654 12.9011 8.06543 10.9011C6.06543 8.90112 5.56543 6.40112 5.56543 6.40112L5.91945 6.22411C6.84981 5.75893 7.26828 4.65826 6.88197 3.69248L6.06832 1.65834C5.76459 0.899026 5.02917 0.401123 4.21136 0.401123H2.56543C1.46086 0.401123 0.56543 1.29655 0.56543 2.40112C0.56543 11.2377 7.72887 18.4011 16.5654 18.4011C17.67 18.4011 18.5654 17.5057 18.5654 16.4011Z" fill="#FF5C5C"/>
</svg>
