<svg width="19" height="19" viewBox="0 0 19 19" fill="none" xmlns="http://www.w3.org/2000/svg">
<path fill-rule="evenodd" clip-rule="evenodd" d="M18.4038 1.53913C18.6614 1.76459 18.6875 2.15623 18.4621 2.41389L16.0899 5.12491C15.5802 5.70746 14.7022 5.78547 14.0978 5.30191L12.6489 4.14286C12.3816 3.92898 12.3382 3.53887 12.5521 3.27153C12.766 3.00418 13.1561 2.96083 13.4235 3.17471L14.8723 4.33376C14.9586 4.40284 15.0841 4.39169 15.1569 4.30847L17.529 1.59745C17.7545 1.33979 18.1461 1.31368 18.4038 1.53913Z" fill="#23CE6B"/>
<path opacity="0.4" d="M18.5654 16.2474V14.6015C18.5654 13.7837 18.0675 13.0483 17.3082 12.7445L15.2741 11.9309C14.3083 11.5446 13.2076 11.9631 12.7424 12.8934L12.5654 13.2474C12.5654 13.2474 10.0654 12.7474 8.06543 10.7474C6.06543 8.74744 5.56543 6.24744 5.56543 6.24744L5.91945 6.07043C6.84981 5.60525 7.26828 4.50457 6.88197 3.53879L6.06832 1.50466C5.76459 0.745339 5.02917 0.247437 4.21136 0.247437H2.56543C1.46086 0.247437 0.56543 1.14287 0.56543 2.24744C0.56543 11.084 7.72887 18.2474 16.5654 18.2474C17.67 18.2474 18.5654 17.352 18.5654 16.2474Z" fill="#23CE6B"/>
</svg>
