<svg width="66" height="67" viewBox="0 0 66 67" fill="none" xmlns="http://www.w3.org/2000/svg">
<path fill-rule="evenodd" clip-rule="evenodd" d="M31.1213 15.1432C25.2811 10.9889 17.0849 9.10627 10.9844 8.40647C7.96516 8.06013 5.5 10.6196 5.5 13.7774V45.2249C5.5 48.3827 7.96516 50.9431 10.9844 51.2894C17.0849 51.9892 25.2811 53.8718 31.1213 58.0262C31.6825 58.4254 32.3412 58.625 33 58.625V15.7421C32.3412 15.7421 31.6825 15.5425 31.1213 15.1432ZM11.7121 22.7241C11.8864 21.5813 12.9403 20.7984 14.0659 20.9754C17.6486 21.5387 21.6832 22.4801 25.4942 23.9761C26.5566 24.3932 27.0848 25.6056 26.674 26.6841C26.2631 27.7626 25.0688 28.2988 24.0064 27.8818C20.5451 26.523 16.8138 25.6448 13.4346 25.1136C12.309 24.9366 11.5378 23.8668 11.7121 22.7241ZM14.0659 32.1421C12.9403 31.9651 11.8864 32.748 11.7121 33.8907C11.5378 35.0334 12.309 36.1033 13.4346 36.2802C15.1376 36.548 16.9352 36.9046 18.7457 37.3683C19.8502 37.6512 20.9715 36.9716 21.2501 35.8504C21.5288 34.7292 20.8593 33.591 19.7548 33.3081C17.8051 32.8087 15.8802 32.4273 14.0659 32.1421Z" fill="#0D2C65"/>
<path opacity="0.4" d="M34.8787 15.1432C40.7189 10.9889 48.9151 9.10627 55.0156 8.40647C58.0348 8.06013 60.5 10.6196 60.5 13.7774V45.2249C60.5 48.3827 58.0348 50.9431 55.0156 51.2894C48.9151 51.9892 40.7189 53.8718 34.8787 58.0262C34.3175 58.4254 33.6588 58.625 33 58.625V15.7421C33.6588 15.7421 34.3175 15.5425 34.8787 15.1432Z" fill="#0D2C65"/>
<path fill-rule="evenodd" clip-rule="evenodd" d="M48.125 43.9688C45.4671 43.9688 43.3125 46.156 43.3125 48.8542C43.3125 51.5523 45.4671 53.7396 48.125 53.7396C50.7829 53.7396 52.9375 51.5523 52.9375 48.8542C52.9375 46.156 50.7829 43.9688 48.125 43.9688ZM39.1875 48.8542C39.1875 43.8433 43.189 39.7812 48.125 39.7812C53.061 39.7812 57.0625 43.8433 57.0625 48.8542C57.0625 50.601 56.5762 52.2326 55.7335 53.6169L59.2084 57.1445C60.0139 57.9622 60.0139 59.2878 59.2084 60.1055C58.403 60.9232 57.097 60.9232 56.2916 60.1055L52.8167 56.5779C51.453 57.4334 49.8458 57.9271 48.125 57.9271C43.189 57.9271 39.1875 53.865 39.1875 48.8542Z" fill="#0D2C65"/>
</svg>
