<svg width="187" height="754" viewBox="0 0 187 754" fill="none" xmlns="http://www.w3.org/2000/svg">
<path d="M112.841 241.06V188.512H0.7854V156.148L108.317 0.94043H152.513V154.06H181.049V188.512H152.513V241.06H112.841ZM40.8054 154.06H112.841V50.7044L40.8054 154.06Z" fill="#233375"/>
<path d="M94.7454 502.28C80.8254 502.28 68.2974 499.496 57.1614 493.928C46.0254 488.128 36.5134 479.776 28.6254 468.872C20.7374 457.968 14.7054 444.86 10.5294 429.548C6.5854 414.236 4.6134 397.068 4.6134 378.044C4.6134 358.324 6.7014 340.692 10.8774 325.148C15.2854 309.604 21.5494 296.38 29.6694 285.476C37.7894 274.572 47.5334 266.22 58.9014 260.42C70.2694 254.62 82.9134 251.72 96.8334 251.72C110.985 251.72 123.513 254.62 134.417 260.42C145.553 266.22 154.949 274.572 162.605 285.476C170.261 296.38 176.061 309.488 180.005 324.8C184.181 339.88 186.269 356.932 186.269 375.956C186.269 395.444 184.181 412.96 180.005 428.504C175.829 444.048 169.681 457.388 161.561 468.524C153.673 479.428 144.045 487.78 132.677 493.58C121.541 499.38 108.897 502.28 94.7454 502.28ZM95.4414 464.696C110.985 464.696 123.049 457.156 131.633 442.076C140.449 426.764 144.857 405.072 144.857 377C144.857 348.928 140.449 327.352 131.633 312.272C123.049 296.96 110.985 289.304 95.4414 289.304C79.8974 289.304 67.7174 296.96 58.9014 312.272C50.3174 327.352 46.0254 348.928 46.0254 377C46.0254 405.072 50.3174 426.764 58.9014 442.076C67.7174 457.156 79.8974 464.696 95.4414 464.696Z" fill="#233375"/>
<path d="M112.841 753.06V700.512H0.7854V668.148L108.317 512.94H152.513V666.06H181.049V700.512H152.513V753.06H112.841ZM40.8054 666.06H112.841V562.704L40.8054 666.06Z" fill="#233375"/>
</svg>
