<svg width="544" height="575" viewBox="0 0 544 575" fill="none" xmlns="http://www.w3.org/2000/svg">
<path d="M143.34 152.406C143.34 152.406 204.889 199.113 298.459 111.779C381.558 34.2196 449.411 156.591 449.884 215.193C450.5 291.104 366.786 351.844 407.413 401.704C448.037 451.564 326.844 533.9 261.526 462.644C180.273 374.004 158.261 446.025 111.947 446.025C78.707 446.025 10.4621 363.43 56.5471 301.984C95.3272 250.279 74.1771 233.118 63.9351 215.193C49.1606 189.339 84.2471 119.166 143.34 152.406Z" fill="#DEE9FF"/>
<path d="M390.439 255.621C393.747 256.851 397.361 256.933 400.801 256.141C415.213 252.835 464.768 244.075 456.158 282.476C454.282 290.094 425.26 332.762 466.59 348.336C469.62 349.492 472.822 350.124 476.063 350.202C488.789 350.464 514.007 347.459 524.56 336.717C537.311 323.738 523.381 329.892 523.381 329.892C523.381 329.892 474.911 351.044 457.789 328.603C455.885 326.106 454.671 322.479 454.325 319.357C453.722 313.945 456.125 306.793 459.282 300.565C463.556 292.137 484.07 254.227 439.528 243.183C429.268 240.74 414.364 238.546 395.15 246.636C383.94 251.355 386.423 254.128 390.439 255.621Z" fill="#233375"/>
<path d="M400.357 241.468L387.456 246.298C383.003 247.965 380.744 252.926 382.411 257.379L383.05 259.088C384.717 263.541 389.678 265.8 394.131 264.133L407.033 259.305C411.486 257.639 413.745 252.678 412.078 248.223L411.439 246.516C409.772 242.061 404.811 239.802 400.357 241.468Z" fill="#233375"/>
<path d="M321.165 255.441L278.619 271.365C276.391 272.198 275.261 274.678 276.096 276.904L276.264 277.353C277.096 279.58 279.577 280.709 281.805 279.877L324.351 263.952C326.579 263.118 327.709 260.638 326.874 258.411L326.706 257.962C325.874 255.736 323.393 254.606 321.165 255.441Z" fill="white"/>
<path d="M333.041 287.168L290.493 303.091C288.267 303.925 287.137 306.406 287.971 308.632L288.138 309.081C288.972 311.307 291.452 312.437 293.679 311.602L336.226 295.68C338.453 294.846 339.582 292.365 338.75 290.139L338.582 289.69C337.75 287.464 335.267 286.334 333.041 287.168Z" fill="white"/>
<path d="M372.323 233.789L337.84 246.694C333.385 248.36 331.126 253.323 332.793 257.776L344.568 289.233C346.234 293.686 351.195 295.945 355.648 294.278L390.133 281.373C394.586 279.707 396.845 274.746 395.178 270.291L383.405 238.834C381.738 234.381 376.777 232.122 372.323 233.789Z" fill="#6E80A3"/>
<path d="M341.403 242.04L306.917 254.947C302.465 256.613 300.206 261.574 301.872 266.029L315.919 303.558C317.586 308.011 322.547 310.27 326.999 308.603L361.484 295.698C365.937 294.032 368.196 289.071 366.529 284.616L352.483 247.087C350.816 242.632 345.855 240.373 341.403 242.04Z" fill="#3A40DD"/>
<path d="M346.8 234.424L346.53 234.525C343.561 235.636 342.054 238.944 343.166 241.913L362.843 294.489C363.955 297.458 367.261 298.964 370.23 297.853L370.5 297.751C373.471 296.64 374.975 293.333 373.864 290.365L354.188 237.788C353.077 234.82 349.769 233.313 346.8 234.424Z" fill="#0D2C65"/>
<path d="M-4.8227 268.038C-4.8227 268.038 64.4326 248.576 54.378 293.417C52.6318 300.512 27.4966 337.043 57.4364 354.583C63.8652 358.349 71.2842 360.018 78.7345 359.979C92.0923 359.909 113.269 357.338 122.782 347.656C135.531 334.678 121.603 340.832 121.603 340.832C121.603 340.832 81.8283 357.193 61.3659 344.151C54.3788 339.698 51.2118 331.076 53.1091 323.009C54.0789 319.003 55.5555 315.137 57.5037 311.504C61.9538 303.169 82.2925 265.166 37.7501 254.123C27.4892 251.679 12.5861 249.486 -6.62998 257.575C-25.846 265.666 -4.8227 268.038 -4.8227 268.038Z" fill="#233375"/>
<path d="M132.094 330.797L119.193 335.626C114.74 337.293 112.481 342.254 114.147 346.709L114.787 348.416C116.454 352.871 121.415 355.13 125.869 353.461L138.77 348.634C143.223 346.967 145.482 342.006 143.816 337.551L143.176 335.844C141.509 331.389 136.548 329.13 132.094 330.797Z" fill="#233375"/>
<path d="M153.891 309.571L134.771 316.728C130.318 318.394 128.058 323.355 129.725 327.81L138.945 352.443C140.612 356.897 145.573 359.156 150.027 357.49L169.147 350.333C173.6 348.666 175.859 343.705 174.193 339.251L164.973 314.618C163.306 310.163 158.345 307.904 153.891 309.571Z" fill="#6E80A3"/>
<path d="M185.722 290.604L157.208 301.276C152.755 302.943 150.496 307.904 152.163 312.359L166.209 349.888C167.876 354.343 172.837 356.602 177.29 354.935L205.803 344.263C210.258 342.596 212.517 337.635 210.85 333.181L196.804 295.651C195.137 291.197 190.176 288.938 185.722 290.604Z" fill="#3A40DD"/>
<path d="M191.763 282.832L191.492 282.933C188.522 284.044 187.017 287.353 188.128 290.321L207.804 342.897C208.915 345.866 212.224 347.373 215.192 346.262L215.463 346.159C218.431 345.048 219.938 341.741 218.827 338.771L199.149 286.196C198.038 283.228 194.731 281.721 191.763 282.832Z" fill="#0D2C65"/>
<path d="M264.573 249.338C263.546 249.223 262.603 248.717 261.943 247.921C261.285 247.126 260.959 246.107 261.034 245.076L263.162 206.216C263.289 203.895 265.249 202.131 267.473 202.337L270.573 202.624C272.797 202.829 274.39 204.92 274.079 207.225L268.851 245.798C268.732 246.825 268.22 247.766 267.422 248.426C266.625 249.086 265.604 249.412 264.573 249.338Z" fill="#2668EC"/>
<path d="M246.203 252.688C245.883 252.782 245.549 252.813 245.217 252.778C244.887 252.741 244.565 252.64 244.274 252.481C243.98 252.323 243.724 252.107 243.515 251.847C243.306 251.589 243.15 251.289 243.056 250.972L235.459 226.798C235.237 226.111 235.299 225.363 235.627 224.721C235.957 224.078 236.527 223.592 237.215 223.371L239.181 222.776C239.52 222.678 239.874 222.651 240.223 222.696C240.571 222.741 240.905 222.858 241.207 223.04C241.508 223.221 241.769 223.463 241.971 223.75C242.174 224.037 242.316 224.363 242.386 224.707L248.017 249.475C248.175 250.139 248.074 250.84 247.738 251.437C247.402 252.032 246.855 252.478 246.203 252.688Z" fill="#2668EC"/>
<path d="M235.951 266.628C234.589 268.315 231.851 268.294 229.743 266.583L192.329 236.183C190.092 234.367 189.434 231.362 190.877 229.574L192.89 227.081C194.336 225.292 197.3 225.439 199.416 227.403L234.819 260.297C236.814 262.149 237.312 264.943 235.951 266.628Z" fill="#2668EC"/>
<path d="M253.246 345.147C254.21 345.52 254.991 346.252 255.426 347.189C255.862 348.126 255.916 349.196 255.579 350.172L243.597 387.199C242.882 389.411 240.536 390.614 238.437 389.847L235.512 388.779C233.415 388.013 232.408 385.583 233.298 383.437L248.203 347.478C248.583 346.515 249.317 345.736 250.258 345.301C251.196 344.866 252.267 344.811 253.246 345.147Z" fill="#2668EC"/>
<path d="M271.862 346.6C272.195 346.59 272.527 346.647 272.838 346.766C273.148 346.885 273.433 347.063 273.675 347.293C273.917 347.52 274.111 347.795 274.247 348.098C274.382 348.402 274.458 348.73 274.466 349.064L275.639 374.375C275.675 375.097 275.427 375.802 274.944 376.339C274.462 376.878 273.785 377.202 273.066 377.241L271.012 377.313C270.659 377.321 270.311 377.258 269.985 377.124C269.659 376.991 269.366 376.792 269.12 376.54C268.876 376.288 268.685 375.989 268.562 375.659C268.441 375.328 268.388 374.978 268.406 374.627L269.288 349.244C269.306 348.56 269.583 347.908 270.058 347.418C270.536 346.928 271.18 346.637 271.862 346.6Z" fill="#2668EC"/>
<path d="M285.335 335.739C287.082 334.456 289.724 335.175 291.323 337.369L319.736 376.314C321.431 378.641 321.302 381.714 319.449 383.075L316.866 384.972C315.013 386.333 312.182 385.433 310.638 382.993L284.808 342.149C283.357 339.851 283.589 337.022 285.335 335.739Z" fill="#2668EC"/>
</svg>
