<svg width="13" height="13" viewBox="0 0 13 13" fill="none" xmlns="http://www.w3.org/2000/svg">
<path d="M0.752075 2.125H5.12708M5.12708 2.125C5.12708 2.81536 5.68672 3.375 6.37708 3.375C7.06743 3.375 7.62708 2.81536 7.62708 2.125M5.12708 2.125C5.12708 1.43464 5.68672 0.875 6.37708 0.875C7.06743 0.875 7.62708 1.43464 7.62708 2.125M0.752075 6.5H6.37708M10.7521 6.5H12.0021M10.7521 6.5C10.7521 7.19036 10.1924 7.75 9.50208 7.75C8.81172 7.75 8.25208 7.19036 8.25208 6.5C8.25208 5.80964 8.81172 5.25 9.50208 5.25C10.1924 5.25 10.7521 5.80964 10.7521 6.5ZM7.62708 2.125H12.0021M6.37708 10.875H12.0021M0.752075 10.875H2.00208M2.00208 10.875C2.00208 11.5654 2.56172 12.125 3.25208 12.125C3.94243 12.125 4.50208 11.5654 4.50208 10.875C4.50208 10.1846 3.94243 9.625 3.25208 9.625C2.56172 9.625 2.00208 10.1846 2.00208 10.875Z" stroke="#0D2C65" stroke-linecap="round"/>
</svg>
