<svg width="21" height="20" viewBox="0 0 21 20" fill="none" xmlns="http://www.w3.org/2000/svg">
<path opacity="0.4" d="M18.136 10H11.136V20H15.136C16.7928 20 18.136 18.6569 18.136 17V10Z" fill="#233375"/>
<path opacity="0.4" d="M2.13599 10H9.13599V20H5.13599C3.47913 20 2.13599 18.6569 2.13599 17V10Z" fill="#233375"/>
<path opacity="0.4" fill-rule="evenodd" clip-rule="evenodd" d="M10.136 2.18718C9.29135 0.871621 7.81546 0 6.13599 0C4.6172 0 3.38599 1.23122 3.38599 2.75C3.38599 4.26878 4.6172 5.5 6.13599 5.5H10.136H14.136C15.6548 5.5 16.886 4.26878 16.886 2.75C16.886 1.23122 15.6548 0 14.136 0C12.4565 0 10.9806 0.871621 10.136 2.18718ZM6.13599 4H9.29902C8.96044 2.56665 7.67278 1.5 6.13599 1.5C5.44563 1.5 4.88599 2.05964 4.88599 2.75C4.88599 3.44036 5.44563 4 6.13599 4ZM14.136 4H10.973C11.3115 2.56665 12.5992 1.5 14.136 1.5C14.8263 1.5 15.386 2.05964 15.386 2.75C15.386 3.44036 14.8263 4 14.136 4Z" fill="#233375"/>
<path d="M0.135986 6C0.135986 4.89543 1.03142 4 2.13599 4H18.136C19.2406 4 20.136 4.89543 20.136 6V8C20.136 9.10457 19.2406 10 18.136 10H2.13599C1.03142 10 0.135986 9.10457 0.135986 8V6Z" fill="#233375"/>
</svg>
