<svg width="25" height="23" viewBox="0 0 25 23" fill="none" xmlns="http://www.w3.org/2000/svg">
<path opacity="0.4" d="M20.1802 11H13.1802V21H17.1802C18.837 21 20.1802 19.6569 20.1802 18V11Z" fill="#FF5C5C"/>
<path opacity="0.4" d="M4.18018 11H11.1802V21H7.18018C5.52332 21 4.18018 19.6569 4.18018 18V11Z" fill="#FF5C5C"/>
<path opacity="0.4" fill-rule="evenodd" clip-rule="evenodd" d="M12.1802 3.18718C11.3355 1.87162 9.85965 1 8.18018 1C6.66139 1 5.43018 2.23122 5.43018 3.75C5.43018 5.26878 6.66139 6.5 8.18018 6.5H12.1802H16.1802C17.699 6.5 18.9302 5.26878 18.9302 3.75C18.9302 2.23122 17.699 1 16.1802 1C14.5007 1 13.0248 1.87162 12.1802 3.18718ZM8.18018 5H11.3432C11.0046 3.56665 9.71697 2.5 8.18018 2.5C7.48982 2.5 6.93018 3.05964 6.93018 3.75C6.93018 4.44036 7.48982 5 8.18018 5ZM16.1802 5H13.0171C13.3557 3.56665 14.6434 2.5 16.1802 2.5C16.8705 2.5 17.4302 3.05964 17.4302 3.75C17.4302 4.44036 16.8705 5 16.1802 5Z" fill="#FF5C5C"/>
<path d="M2.18018 7C2.18018 5.89543 3.07561 5 4.18018 5H20.1802C21.2847 5 22.1802 5.89543 22.1802 7V9C22.1802 10.1046 21.2847 11 20.1802 11H4.18018C3.07561 11 2.18018 10.1046 2.18018 9V7Z" fill="#FF5C5C"/>
</svg>
