<svg width="70" height="70" viewBox="0 0 70 70" fill="none" xmlns="http://www.w3.org/2000/svg">
<circle cx="35.3848" cy="34.9355" r="34.5" fill="#C92135"/>
<path d="M28.9068 51.4357C28.5911 51.4361 28.2785 51.3741 27.9868 51.2533C27.6952 51.1324 27.4303 50.9551 27.2074 50.7315L20.409 43.9331C19.2921 42.8174 18.406 41.4926 17.8013 40.0344C17.1966 38.5761 16.8852 37.013 16.8848 35.4344C16.8843 33.8557 17.195 32.2925 17.7989 30.8339C18.4028 29.3753 19.2882 28.0501 20.4045 26.9338C21.5208 25.8175 22.8461 24.9321 24.3046 24.3282C25.7632 23.7243 27.3264 23.4136 28.9051 23.4141C30.4837 23.4145 32.0468 23.7259 33.5051 24.3306C34.9633 24.9353 36.2881 25.8214 37.4038 26.9383L44.2022 33.7359C44.6529 34.1866 44.9061 34.7979 44.9061 35.4353C44.9061 36.0726 44.6529 36.6839 44.2022 37.1346C43.7515 37.5854 43.1402 37.8386 42.5028 37.8386C41.8654 37.8386 41.2542 37.5854 40.8034 37.1346L34.005 30.3371C32.6528 28.9848 30.8187 28.2252 28.9064 28.2252C26.994 28.2252 25.16 28.9848 23.8078 30.3371C22.4555 31.6893 21.6959 33.5233 21.6959 35.4357C21.6959 37.348 22.4555 39.1821 23.8078 40.5343L30.6062 47.3327C30.9423 47.6689 31.1712 48.0971 31.2639 48.5633C31.3566 49.0295 31.309 49.5128 31.1271 49.9519C30.9452 50.3911 30.6372 50.7664 30.242 51.0305C29.8468 51.2947 29.3822 51.4357 28.9068 51.4357V51.4357Z" fill="white"/>
<path d="M42.5028 47.4476C40.9247 47.4503 39.3615 47.1412 37.9032 46.538C36.4449 45.9348 35.1201 45.0494 34.005 43.9327L27.2074 37.1342C26.7578 36.6833 26.5055 36.0724 26.506 35.4356C26.5064 34.7988 26.7596 34.1882 27.2099 33.7379C27.6602 33.2876 28.2708 33.0345 28.9075 33.034C29.5443 33.0336 30.1553 33.2858 30.6062 33.7355L37.4038 40.5339C38.7564 41.8844 40.5899 42.6426 42.5013 42.6418C44.4127 42.6411 46.2456 41.8816 47.5972 40.5301C48.9488 39.1786 49.7085 37.3457 49.7094 35.4343C49.7103 33.523 48.9522 31.6894 47.6019 30.3367L40.8034 23.5382C40.5803 23.3151 40.4032 23.0501 40.2825 22.7586C40.1617 22.467 40.0995 22.1545 40.0995 21.8388C40.0995 21.5232 40.1617 21.2107 40.2825 20.9191C40.4032 20.6276 40.5803 20.3626 40.8034 20.1395C41.0266 19.9163 41.2915 19.7393 41.5831 19.6185C41.8747 19.4977 42.1872 19.4355 42.5028 19.4355C42.8184 19.4355 43.1309 19.4977 43.4225 19.6185C43.7141 19.7393 43.979 19.9163 44.2022 20.1395L51.0007 26.9379C52.682 28.6179 53.8272 30.7589 54.2912 33.09C54.7553 35.4211 54.5174 37.8375 53.6076 40.0333C52.6978 42.2291 51.157 44.1057 49.1803 45.4255C47.2035 46.7453 44.8797 47.449 42.5028 47.4476Z" fill="white"/>
</svg>
