<svg width="25" height="25" viewBox="0 0 25 25" fill="none" xmlns="http://www.w3.org/2000/svg">
<path d="M2.76929 12.1621C2.76929 6.63926 7.24644 2.16211 12.7693 2.16211C18.2921 2.16211 22.7693 6.63926 22.7693 12.1621C22.7693 17.685 18.2921 22.1621 12.7693 22.1621C7.24644 22.1621 2.76929 17.685 2.76929 12.1621Z" fill="#21D184"/>
<path fill-rule="evenodd" clip-rule="evenodd" d="M13.2996 7.63178C13.0067 7.33889 12.5319 7.33889 12.239 7.63178L9.23896 10.6318C8.94606 10.9247 8.94606 11.3995 9.23896 11.6924C9.53185 11.9853 10.0067 11.9853 10.2996 11.6924L12.0193 9.97277V16.1621C12.0193 16.5763 12.3551 16.9121 12.7693 16.9121C13.1835 16.9121 13.5193 16.5763 13.5193 16.1621V9.97277L15.239 11.6924C15.5319 11.9853 16.0067 11.9853 16.2996 11.6924C16.5925 11.3995 16.5925 10.9247 16.2996 10.6318L13.2996 7.63178Z" fill="white"/>
</svg>
