<svg width="52" height="21" viewBox="0 0 52 21" fill="none" xmlns="http://www.w3.org/2000/svg">
<ellipse cx="49.8973" cy="2.73259" rx="1.98906" ry="1.98906" fill="#23CE6B"/>
<path opacity="0.6" d="M49.6758 4.71171C51.0229 4.83356 51.7813 3.8091 51.8708 3.05543C51.9402 2.47036 51.7641 1.9854 51.4562 1.62756C51.7338 2.76918 50.901 3.70013 49.6758 3.83321L49.6758 4.71171Z" fill="url(#paint0_linear_238_2400)"/>
<path fill-rule="evenodd" clip-rule="evenodd" d="M39.0283 0.74354H35.9648V16.2796H39.0283V9.64944C39.0283 9.16804 39.1304 8.7377 39.3346 8.35841C39.5388 7.97913 39.816 7.68737 40.1661 7.48314C40.5162 7.26432 40.9247 7.15491 41.3915 7.15491C42.0334 7.15491 42.5367 7.38832 42.9013 7.85513C43.266 8.30735 43.4484 8.93463 43.4484 9.73697V16.2796H46.5118V9.68748C46.5118 8.68091 46.3368 7.80564 45.9867 7.06166C45.6366 6.31767 45.1406 5.74874 44.4987 5.35487C43.8714 4.94641 43.1348 4.74218 42.2887 4.74218C41.5738 4.74218 40.9393 4.88806 40.3849 5.17982C39.8306 5.45699 39.3784 5.84357 39.0283 6.33955V0.74354ZM0.228516 0.74353V16.2796H3.48891V8.75228L9.61582 16.2796H13.839L6.83683 7.98642L13.0513 0.74353H9.24383L3.48891 7.63631V0.74353H0.228516ZM14.6353 20.6122C14.9854 20.6998 15.3574 20.7435 15.7513 20.7435C16.7141 20.7435 17.531 20.4737 18.2021 19.9339C18.8877 19.3942 19.4493 18.5408 19.887 17.3737L24.6353 4.72603H21.3968L18.9242 12.9098L16.1889 4.72603H12.841L17.5018 16.1702L17.3049 16.6735C17.1007 17.1695 16.8381 17.5269 16.5171 17.7457C16.2108 17.9791 15.8461 18.0958 15.4231 18.0958C15.2334 18.0958 15.0292 18.0667 14.8104 18.0083C14.5915 17.9645 14.4019 17.9062 14.2414 17.8332L13.6506 20.2402C13.957 20.4153 14.2852 20.5393 14.6353 20.6122ZM48.3652 16.2796V4.79906C48.653 5.35152 49.231 5.72874 49.8971 5.72874C50.5629 5.72874 51.1406 5.35182 51.4286 4.79971V16.2796H48.3652Z" fill="white"/>
<path d="M29.8119 16.3198C28.9949 16.3198 28.251 16.1955 27.5799 15.9471C26.9235 15.6986 26.3618 15.3465 25.895 14.8909C25.4428 14.4354 25.1292 13.897 24.9541 13.2757L27.7112 12.7166C27.8571 13.1446 28.1197 13.4828 28.499 13.7313C28.8782 13.9798 29.3305 14.104 29.8556 14.104C30.3516 14.104 30.7601 14.0005 31.081 13.7934C31.402 13.5864 31.5624 13.3033 31.5624 12.9444C31.5624 12.6407 31.4165 12.3922 31.1248 12.1989C30.8476 11.9918 30.3808 11.8331 29.7243 11.7226L29.1117 11.6191C27.8571 11.412 26.9016 11.0255 26.2451 10.4595C25.6033 9.89343 25.2823 9.17556 25.2823 8.30583C25.2823 7.61556 25.472 7.00813 25.8513 6.48353C26.2305 5.94512 26.7557 5.52406 27.4267 5.22035C28.0978 4.91663 28.871 4.76477 29.7462 4.76477C30.5194 4.76477 31.2196 4.88902 31.8469 5.13751C32.4887 5.3722 33.0212 5.71043 33.4443 6.1522C33.8673 6.59397 34.1591 7.12547 34.3195 7.74671L31.5843 8.28512C31.4384 7.87096 31.1977 7.54654 30.8622 7.31185C30.5413 7.07716 30.162 6.95981 29.7243 6.95981C29.2721 6.95981 28.9001 7.06335 28.6084 7.27043C28.3166 7.47751 28.1707 7.73981 28.1707 8.05733C28.1707 8.33344 28.3093 8.56813 28.5865 8.7614C28.8782 8.94087 29.3669 9.08583 30.0526 9.19627L30.6653 9.29981C31.9052 9.50689 32.8534 9.90034 33.5099 10.4802C34.1664 11.0462 34.4946 11.771 34.4946 12.6545C34.4946 13.1929 34.3779 13.683 34.1445 14.1248C33.9257 14.5665 33.6047 14.9531 33.1817 15.2844C32.7586 15.6157 32.2626 15.8711 31.6937 16.0506C31.1248 16.2301 30.4975 16.3198 29.8119 16.3198Z" fill="white"/>
<path d="M13.0342 0.750977L3.47266 11.9611L3.4726 8.248L13.0342 0.750977Z" fill="url(#paint1_linear_238_2400)"/>
<path d="M13.012 0.786621L3.4638 9.36017L3.46387 8.25674L13.012 0.786621Z" fill="#23CE6B"/>
<defs>
<linearGradient id="paint0_linear_238_2400" x1="52.5667" y1="0.90727" x2="50.2104" y2="4.45945" gradientUnits="userSpaceOnUse">
<stop stop-color="#33197E"/>
<stop offset="1" stop-color="#33197E" stop-opacity="0"/>
</linearGradient>
<linearGradient id="paint1_linear_238_2400" x1="3.43303" y1="10.9142" x2="11.9906" y2="-0.706201" gradientUnits="userSpaceOnUse">
<stop stop-color="#23CE6B"/>
<stop offset="1" stop-color="#EEFBF4"/>
</linearGradient>
</defs>
</svg>
