<svg width="22" height="19" viewBox="0 0 22 19" fill="none" xmlns="http://www.w3.org/2000/svg">
<path fill-rule="evenodd" clip-rule="evenodd" d="M21.6034 0.539072C21.861 0.764525 21.8871 1.15617 21.6617 1.41383L19.2895 4.12485C18.7798 4.7074 17.9018 4.78541 17.2973 4.30185L15.8485 3.1428C15.5812 2.92892 15.5378 2.53881 15.7517 2.27147C15.9656 2.00412 16.3557 1.96077 16.623 2.17465L18.0719 3.3337C18.1582 3.40278 18.2836 3.39163 18.3565 3.30841L20.7286 0.597389C20.9541 0.339728 21.3457 0.313619 21.6034 0.539072Z" fill="#23CE6B"/>
<path opacity="0.4" d="M0.56543 7.24744C0.56543 5.59058 1.90858 4.24744 3.56543 4.24744H13.5654C15.2223 4.24744 16.5654 5.59058 16.5654 7.24744V15.2474C16.5654 16.9043 15.2223 18.2474 13.5654 18.2474H3.56543C1.90858 18.2474 0.56543 16.9043 0.56543 15.2474V7.24744Z" fill="#23CE6B"/>
<path fill-rule="evenodd" clip-rule="evenodd" d="M3.96547 8.79748C4.214 8.46611 4.6841 8.39895 5.01547 8.64748L7.21547 10.2975C8.01547 10.8975 9.11547 10.8975 9.91547 10.2975L12.1155 8.64748C12.4468 8.39895 12.9169 8.46611 13.1655 8.79748C13.414 9.12885 13.3468 9.59895 13.0155 9.84748L10.8155 11.4975C9.48214 12.4975 7.64881 12.4975 6.31547 11.4975L4.11547 9.84748C3.7841 9.59895 3.71695 9.12885 3.96547 8.79748Z" fill="#23CE6B"/>
</svg>
