<svg width="22" height="18" viewBox="0 0 22 18" fill="none" xmlns="http://www.w3.org/2000/svg">
<path fill-rule="evenodd" clip-rule="evenodd" d="M21.174 0.291666C21.4317 0.517119 21.4578 0.908761 21.2324 1.16642L18.8602 3.87745C18.3505 4.46 17.4725 4.538 16.868 4.05444L15.4192 2.89539C15.1519 2.68152 15.1085 2.29141 15.3224 2.02406C15.5363 1.75671 15.9264 1.71337 16.1937 1.92724L17.6425 3.08629C17.7289 3.15537 17.8543 3.14423 17.9271 3.06101L20.2993 0.349983C20.5247 0.0923221 20.9164 0.0662127 21.174 0.291666Z" fill="#233375"/>
<path opacity="0.4" d="M0.135986 7.00002C0.135986 5.34316 1.47913 4.00002 3.13599 4.00002H13.136C14.7928 4.00002 16.136 5.34316 16.136 7.00002V15C16.136 16.6569 14.7928 18 13.136 18H3.13599C1.47913 18 0.135986 16.6569 0.135986 15V7.00002Z" fill="#233375"/>
<path fill-rule="evenodd" clip-rule="evenodd" d="M3.53603 8.55004C3.78456 8.21867 4.25466 8.15152 4.58603 8.40004L6.78603 10.05C7.58603 10.65 8.68603 10.65 9.48603 10.05L11.686 8.40004C12.0174 8.15152 12.4875 8.21867 12.736 8.55004C12.9846 8.88142 12.9174 9.35152 12.586 9.60004L10.386 11.25C9.0527 12.25 7.21936 12.25 5.88603 11.25L3.68603 9.60004C3.35466 9.35152 3.2875 8.88142 3.53603 8.55004Z" fill="#233375"/>
</svg>
