<svg width="22" height="20" viewBox="0 0 22 20" fill="none" xmlns="http://www.w3.org/2000/svg">
<path fill-rule="evenodd" clip-rule="evenodd" d="M17.0351 0.870793C17.328 0.5779 17.8029 0.5779 18.0958 0.870793L19.0654 1.84046L20.0351 0.8708C20.328 0.577906 20.8029 0.577906 21.0958 0.8708C21.3886 1.16369 21.3886 1.63857 21.0958 1.93146L20.1261 2.90112L21.0958 3.87079C21.3886 4.16368 21.3886 4.63856 21.0958 4.93145C20.8029 5.22434 20.328 5.22434 20.0351 4.93145L19.0654 3.96179L18.0958 4.93146C17.8029 5.22435 17.328 5.22435 17.0351 4.93146C16.7422 4.63856 16.7422 4.16369 17.0351 3.8708L18.0048 2.90112L17.0351 1.93145C16.7422 1.63856 16.7422 1.16369 17.0351 0.870793Z" fill="#FF5C5C"/>
<path opacity="0.4" d="M0.56543 8.40112C0.56543 6.74427 1.90858 5.40112 3.56543 5.40112H13.5654C15.2223 5.40112 16.5654 6.74427 16.5654 8.40112V16.4011C16.5654 18.058 15.2223 19.4011 13.5654 19.4011H3.56543C1.90858 19.4011 0.56543 18.058 0.56543 16.4011V8.40112Z" fill="#FF5C5C"/>
<path fill-rule="evenodd" clip-rule="evenodd" d="M3.96547 9.95117C4.214 9.6198 4.6841 9.55264 5.01547 9.80117L7.21547 11.4512C8.01547 12.0512 9.11547 12.0512 9.91547 11.4512L12.1155 9.80117C12.4468 9.55264 12.9169 9.6198 13.1655 9.95117C13.414 10.2825 13.3468 10.7526 13.0155 11.0012L10.8155 12.6512C9.48214 13.6512 7.64881 13.6512 6.31547 12.6512L4.11547 11.0012C3.7841 10.7526 3.71695 10.2825 3.96547 9.95117Z" fill="#FF5C5C"/>
</svg>
