<svg width="25" height="25" viewBox="0 0 25 25" fill="none" xmlns="http://www.w3.org/2000/svg">
<path opacity="0.4" d="M6.6322 12.1777C6.6322 7.75946 10.2139 4.17773 14.6322 4.17773C19.0505 4.17773 22.6322 7.75946 22.6322 12.1777C22.6322 16.596 19.0505 20.1777 14.6322 20.1777C10.2139 20.1777 6.6322 16.596 6.6322 12.1777Z" fill="white"/>
<path fill-rule="evenodd" clip-rule="evenodd" d="M7.16253 16.7081C6.86964 17.001 6.39477 17.001 6.10187 16.7081L2.10187 12.7081C1.96122 12.5675 1.8822 12.3767 1.8822 12.1778C1.8822 11.9789 1.96122 11.7881 2.10187 11.6474L6.10187 7.64741C6.39476 7.35451 6.86964 7.35451 7.16253 7.6474C7.45542 7.94029 7.45543 8.41517 7.16253 8.70806L4.44285 11.4278L16.6322 11.4278C17.0464 11.4278 17.3822 11.7636 17.3822 12.1778C17.3822 12.592 17.0464 12.9278 16.6322 12.9278L4.44287 12.9278L7.16253 15.6474C7.45542 15.9403 7.45543 16.4152 7.16253 16.7081Z" fill="white"/>
</svg>
