<svg width="19" height="20" viewBox="0 0 19 20" fill="none" xmlns="http://www.w3.org/2000/svg">
<path opacity="0.4" d="M7.51151 0.722073L2.51369 2.94333C1.06807 3.58583 0.114077 5.02467 0.206067 6.60396C0.565699 12.7782 2.37374 15.4963 7.07187 18.677C8.31646 19.5196 9.95703 19.5217 11.2007 18.6777C15.9133 15.4797 17.6566 12.7231 18.0479 6.62535C18.1499 5.03561 17.1943 3.5815 15.7386 2.93452L10.7606 0.722073C9.72636 0.262401 8.54577 0.262402 7.51151 0.722073Z" fill="#233375"/>
<path fill-rule="evenodd" clip-rule="evenodd" d="M12.6299 6.43558C12.9416 6.70834 12.9732 7.18216 12.7004 7.49389L9.83054 10.7738C9.21385 11.4786 8.1516 11.5729 7.42031 10.9879L5.66749 9.58566C5.34405 9.3269 5.29161 8.85494 5.55036 8.53149C5.80912 8.20804 6.28109 8.1556 6.60454 8.41436L8.35736 9.81662C8.46183 9.90019 8.61358 9.88671 8.70167 9.78603L11.5716 6.50613C11.8443 6.1944 12.3182 6.16282 12.6299 6.43558Z" fill="#233375"/>
</svg>
