<svg width="19" height="20" viewBox="0 0 19 20" fill="none" xmlns="http://www.w3.org/2000/svg">
<path opacity="0.4" d="M7.94089 1.1232L2.94307 3.34445C1.49745 3.98695 0.543459 5.42579 0.635449 7.00508C0.995082 13.1793 2.80313 15.8974 7.50125 19.0781C8.74584 19.9207 10.3864 19.9228 11.6301 19.0788C16.3427 15.8808 18.086 13.1243 18.4772 7.02647C18.5792 5.43674 17.6237 3.98262 16.168 3.33564L11.19 1.1232C10.1557 0.663524 8.97515 0.663525 7.94089 1.1232Z" fill="#FF5C5C"/>
<path fill-rule="evenodd" clip-rule="evenodd" d="M7.30108 7.98877C7.62652 7.66333 8.15416 7.66333 8.4796 7.98877L9.55701 9.06618L10.6344 7.98877C10.9598 7.66334 11.4875 7.66334 11.8129 7.98877C12.1384 8.31421 12.1384 8.84185 11.8129 9.16729L10.7355 10.2447L11.8129 11.3221C12.1384 11.6475 12.1384 12.1752 11.8129 12.5006C11.4875 12.826 10.9598 12.826 10.6344 12.5006L9.55701 11.4232L8.47959 12.5006C8.15416 12.826 7.62652 12.826 7.30108 12.5006C6.97565 12.1752 6.97565 11.6475 7.30108 11.3221L8.3785 10.2447L7.30108 9.16728C6.97565 8.84184 6.97565 8.3142 7.30108 7.98877Z" fill="#FF5C5C"/>
</svg>
