<svg width="135" height="135" viewBox="0 0 135 135" fill="none" xmlns="http://www.w3.org/2000/svg">
<g clip-path="url(#clip0_306_4736)">
<path d="M67.5 134.744C104.503 134.744 134.5 104.747 134.5 67.7441C134.5 30.7411 104.503 0.744141 67.5 0.744141C30.4969 0.744141 0.5 30.7411 0.5 67.7441C0.5 104.747 30.4969 134.744 67.5 134.744Z" fill="#2668EC"/>
<path d="M81.5999 133.163C82.8839 132.913 84.1604 132.626 85.4276 132.301C87.577 131.702 89.6952 130.996 91.7742 130.186C93.8576 129.38 95.8994 128.47 97.8919 127.46C99.8838 126.445 101.824 125.331 103.704 124.123C105.582 122.916 107.398 121.617 109.146 120.23C110.898 118.839 112.579 117.361 114.184 115.802C115.784 114.247 117.305 112.613 118.742 110.906C120.182 109.197 121.536 107.417 122.799 105.573C124.06 103.732 125.228 101.828 126.299 99.8701C127.37 97.9098 128.341 95.8971 129.211 93.8397C130.082 91.782 130.85 89.682 131.512 87.5475C132.078 85.6794 132.562 83.7874 132.962 81.877L93.1592 42.0739C86.0612 34.9758 76.7922 31.4307 67.5107 31.4307C58.2287 31.4307 48.9385 34.9752 41.8405 42.0739C27.6443 56.2701 27.6443 79.2073 41.8405 93.4035L81.5999 133.163Z" fill="#233375"/>
<path d="M67.5048 31.4355C76.7868 31.4355 86.0661 34.9807 93.1642 42.0788C107.36 56.275 107.36 79.2122 93.1642 93.4084C78.968 107.605 56.0308 107.605 41.8346 93.4084C27.6385 79.2122 27.6385 56.275 41.8346 42.0788C48.9327 34.9807 58.2228 31.4355 67.5048 31.4355ZM84.0367 56.5715C83.508 56.6199 82.9943 56.8231 82.5755 57.1494L62.1832 72.4491L52.7286 62.9945C50.6775 60.8582 46.6448 64.8909 48.7811 66.9421L59.9477 78.1087C60.8867 79.0461 62.5266 79.1639 63.59 78.3704L85.9233 61.6204C87.803 60.2523 86.6449 56.6047 84.3203 56.5714C84.2259 56.5666 84.1312 56.5666 84.0368 56.5714L84.0367 56.5715Z" fill="white"/>
</g>
<defs>
<clipPath id="clip0_306_4736">
<rect width="134" height="134" fill="white" transform="translate(0.5 0.744141)"/>
</clipPath>
</defs>
</svg>
