<svg width="10" height="18" viewBox="0 0 10 18" fill="none" xmlns="http://www.w3.org/2000/svg">
<path d="M3.2178 9.02483C3.21278 10.4818 2.63444 11.8783 1.60785 12.9123C1.46071 13.0585 1.26166 13.1406 1.05419 13.1406C0.84671 13.1406 0.647664 13.0585 0.500521 12.9123C0.354251 12.7651 0.27215 12.5661 0.27215 12.3586C0.27215 12.1511 0.354251 11.9521 0.500521 11.8049C0.8662 11.4402 1.15633 11.0069 1.35428 10.5298C1.55224 10.0528 1.65414 9.54133 1.65414 9.02483C1.65414 8.50834 1.55224 7.99691 1.35428 7.51986C1.15633 7.0428 0.8662 6.60949 0.500521 6.24473C0.352551 6.09973 0.267869 5.90214 0.264918 5.69499C0.255746 5.53565 0.295341 5.37729 0.37843 5.24102C0.461518 5.10475 0.584155 4.99703 0.730004 4.93221C0.875854 4.86738 1.03799 4.84854 1.19482 4.87818C1.35165 4.90783 1.49572 4.98455 1.60785 5.09813C2.12091 5.61487 2.52716 6.2276 2.80339 6.90135C3.07963 7.5751 3.22045 8.29666 3.2178 9.02483ZM6.35916 9.02483C6.35307 11.3149 5.44446 13.5102 3.83036 15.1348C3.75714 15.208 3.67021 15.2661 3.57454 15.3057C3.47887 15.3453 3.37633 15.3657 3.27277 15.3657C3.06363 15.3657 2.86306 15.2827 2.71518 15.1348C2.5673 14.9869 2.48422 14.7863 2.48422 14.5772C2.48422 14.3681 2.5673 14.1675 2.71518 14.0196C4.0388 12.6943 4.78226 10.8979 4.78226 9.02483C4.78226 7.15179 4.0388 5.35534 2.71518 4.03007C2.64239 3.95669 2.58481 3.86966 2.54573 3.77398C2.50664 3.67829 2.48683 3.57584 2.48743 3.47248C2.48683 3.36912 2.50664 3.26666 2.54573 3.17098C2.58481 3.0753 2.64239 2.98827 2.71518 2.91489C2.78819 2.84128 2.87505 2.78285 2.97075 2.74298C3.06645 2.70311 3.1691 2.68258 3.27277 2.68258C3.37645 2.68258 3.47909 2.70311 3.5748 2.74298C3.6705 2.78285 3.75736 2.84128 3.83036 2.91489C5.44446 4.53942 6.35307 6.73477 6.35916 9.02483ZM6.05288 0.692373C7.14756 1.78636 8.01595 3.08532 8.60843 4.51504C9.20091 5.94476 9.50586 7.47721 9.50586 9.02483C9.50586 10.5725 9.20091 12.1049 8.60843 13.5346C8.01595 14.9643 7.14756 16.2633 6.05288 17.3573C5.90499 17.5052 5.70442 17.5883 5.49529 17.5883C5.28615 17.5883 5.08558 17.5052 4.93769 17.3573C4.78981 17.2094 4.70673 17.0088 4.70673 16.7997C4.70673 16.5906 4.78981 16.39 4.93769 16.2421C6.85118 14.3276 7.92609 11.7316 7.92609 9.02483C7.92609 6.31805 6.85118 3.72204 4.93769 1.80756C4.86408 1.73455 4.80566 1.64769 4.76579 1.55199C4.72592 1.45629 4.70539 1.35364 4.70539 1.24997C4.70539 1.14629 4.72592 1.04364 4.76579 0.947943C4.80566 0.852242 4.86408 0.765381 4.93769 0.692373C5.0107 0.618765 5.09756 0.560341 5.19326 0.52047C5.28896 0.480598 5.39161 0.460072 5.49529 0.460072C5.59896 0.460072 5.70161 0.480598 5.79731 0.52047C5.89301 0.560341 5.97987 0.618765 6.05288 0.692373Z" fill="#04CE9D"/>
</svg>
