<svg width="72" height="24" viewBox="0 0 72 24" fill="none" xmlns="http://www.w3.org/2000/svg">
<g clip-path="url(#clip0_238_2408)">
<path d="M31.1729 22.8014H25.416L29.0168 0.536743H34.7734L31.1729 22.8014Z" fill="white"/>
<path d="M52.0417 1.08107C50.9061 0.630579 49.1051 0.133179 46.8782 0.133179C41.193 0.133179 37.1896 3.1648 37.165 7.4991C37.1178 10.6969 40.0314 12.4731 42.2105 13.5394C44.4377 14.6289 45.1949 15.3401 45.1949 16.3113C45.1722 17.8028 43.3951 18.4904 41.7376 18.4904C39.4392 18.4904 38.2077 18.1359 36.3361 17.3061L35.5781 16.9503L34.7725 21.9482C36.1227 22.5634 38.6103 23.1093 41.193 23.1332C47.2336 23.1332 51.1662 20.1485 51.2128 15.5296C51.2358 12.9951 49.6973 11.053 46.3804 9.46603C44.3669 8.44731 43.1338 7.76039 43.1338 6.71806C43.1574 5.77048 44.1768 4.79992 46.4497 4.79992C48.3212 4.75238 49.6963 5.20225 50.738 5.65242L51.2587 5.88885L52.0417 1.08107Z" fill="white"/>
<path d="M59.693 14.9138C60.1672 13.6347 61.9915 8.68434 61.9915 8.68434C61.9675 8.73187 62.4646 7.38165 62.7489 6.55276L63.1512 8.47121C63.1512 8.47121 64.2414 13.8006 64.4782 14.9138C63.5784 14.9138 60.8301 14.9138 59.693 14.9138ZM66.7992 0.536743H62.3463C60.9731 0.536743 59.9298 0.93907 59.3373 2.38405L50.7861 22.801H56.8267C56.8267 22.801 57.8212 20.0531 58.0349 19.4612C58.6976 19.4612 64.5739 19.4612 65.4264 19.4612C65.5916 20.2429 66.1133 22.801 66.1133 22.801H71.4436L66.7992 0.536743Z" fill="white"/>
<path d="M20.6069 0.536743L14.969 15.7191L14.3529 12.6399C13.3106 9.08698 10.0416 5.22678 6.39355 3.30738L11.5577 22.7777H17.6455L26.6944 0.536743H20.6069Z" fill="white"/>
<path d="M9.73405 0.536743H0.47171L0.376953 0.986606C7.60215 2.83422 12.3873 7.28784 14.3532 12.6409L12.3397 2.40829C12.0082 0.986291 10.9895 0.58365 9.73405 0.536743Z" fill="#FAA61A"/>
</g>
<defs>
<clipPath id="clip0_238_2408">
<rect width="71.067" height="23" fill="white" transform="translate(0.376953 0.133179)"/>
</clipPath>
</defs>
</svg>
