<svg width="21" height="21" viewBox="0 0 21 21" fill="none" xmlns="http://www.w3.org/2000/svg">
<path opacity="0.4" d="M0.222412 4.66992H16.2224C18.4316 4.66992 20.2224 6.46078 20.2224 8.66992V16.6699C20.2224 18.8791 18.4316 20.6699 16.2224 20.6699H4.22241C2.01327 20.6699 0.222412 18.8791 0.222412 16.6699V4.66992Z" fill="white"/>
<path d="M0.222412 4.66992C0.222412 2.46078 2.01327 0.669922 4.22241 0.669922H10.2224C12.4316 0.669922 14.2224 2.46078 14.2224 4.66992H0.222412Z" fill="white"/>
<path d="M20.2224 10.6699L20.2224 14.6699L16.2224 14.6699C15.1178 14.6699 14.2224 13.7745 14.2224 12.6699C14.2224 11.5654 15.1178 10.6699 16.2224 10.6699L20.2224 10.6699Z" fill="white"/>
</svg>
